<svg xmlns="http://www.w3.org/2000/svg" xmlns:xlink="http://www.w3.org/1999/xlink" width="1080" zoomAndPan="magnify" viewBox="0 0 810 809.999993" height="1080" preserveAspectRatio="xMidYMid meet" version="1.0"><defs><filter x="0%" y="0%" width="100%" height="100%" id="5d021bd7d6"><feColorMatrix values="0 0 0 0 1 0 0 0 0 1 0 0 0 0 1 0 0 0 1 0" color-interpolation-filters="sRGB"/></filter><mask id="aa07f7776c"><g filter="url(#5d021bd7d6)"><rect x="-81" width="972" fill="#000000" y="-80.999999" height="971.999992" fill-opacity="0.32"/></g></mask><clipPath id="923c0729b2"><path d="M 0.390625 1.046875 L 183.679688 1.046875 L 183.679688 170.640625 L 0.390625 170.640625 Z M 0.390625 1.046875 " clip-rule="nonzero"/></clipPath><clipPath id="7792a20e82"><rect x="0" width="185" y="0" height="172"/></clipPath><mask id="6e4fd1d2ba"><g filter="url(#5d021bd7d6)"><rect x="-81" width="972" fill="#000000" y="-80.999999" height="971.999992" fill-opacity="0.91"/></g></mask><clipPath id="bf3d60503a"><path d="M 1.042969 0.621094 L 157.339844 0.621094 L 157.339844 97.914062 L 1.042969 97.914062 Z M 1.042969 0.621094 " clip-rule="nonzero"/></clipPath><clipPath id="e84d7d91be"><rect x="0" width="159" y="0" height="99"/></clipPath></defs><path fill="#808587" d="M 583.621094 810 C 567.425781 810 551.355469 806.058594 536.617188 798.292969 C 512.355469 785.554688 494.523438 764.023438 486.457031 737.699219 C 469.78125 683.59375 499.863281 625.910156 553.476562 609.105469 C 579.375 601.039062 606.851562 603.464844 630.867188 616.144531 C 655.128906 628.882812 672.960938 650.414062 681.027344 676.800781 C 697.644531 730.90625 667.621094 788.589844 614.007812 805.390625 C 604 808.484375 593.75 810 583.621094 810 Z M 583.804688 620.570312 C 575.25 620.570312 566.699219 621.84375 558.269531 624.515625 C 513.085938 638.648438 487.792969 687.292969 501.863281 732.96875 C 508.71875 755.167969 523.699219 773.304688 544.136719 784.039062 C 564.332031 794.652344 587.382812 796.777344 609.15625 789.921875 C 654.339844 775.789062 679.632812 727.144531 665.558594 681.46875 C 658.707031 659.269531 643.726562 641.132812 623.285156 630.398438 C 610.914062 623.90625 597.386719 620.570312 583.804688 620.570312 Z M 628.441406 205.625 C 612.246094 205.625 596.175781 201.679688 581.4375 193.917969 C 557.175781 181.179688 539.347656 159.648438 531.28125 133.320312 C 514.601562 79.214844 544.683594 21.53125 598.296875 4.730469 C 624.195312 -3.398438 651.671875 -0.910156 675.6875 11.765625 C 699.949219 24.503906 717.78125 46.039062 725.847656 72.363281 C 742.527344 126.46875 712.441406 184.152344 658.828125 200.953125 C 648.820312 204.046875 638.632812 205.625 628.441406 205.625 Z M 628.625 16.195312 C 620.070312 16.195312 611.519531 17.46875 603.089844 20.136719 C 557.90625 34.332031 532.613281 82.976562 546.683594 128.589844 C 553.539062 150.789062 568.519531 168.925781 588.957031 179.664062 C 609.15625 190.277344 632.261719 192.402344 653.976562 185.546875 C 699.160156 171.351562 724.453125 122.707031 710.378906 77.09375 C 703.527344 54.894531 688.546875 36.757812 668.105469 26.019531 C 655.734375 19.46875 642.210938 16.195312 628.625 16.195312 Z M 163.980469 582.539062 C 147.785156 582.539062 131.710938 578.597656 116.972656 570.832031 C 92.714844 558.097656 74.882812 536.5625 66.816406 510.238281 C 50.136719 456.132812 80.21875 398.449219 133.835938 381.648438 C 159.734375 373.582031 187.207031 376.007812 211.226562 388.683594 C 235.484375 401.421875 253.316406 422.953125 261.382812 449.277344 C 278.0625 503.382812 247.980469 561.066406 194.363281 577.871094 C 184.355469 580.964844 174.167969 582.539062 163.980469 582.539062 Z M 164.222656 393.113281 C 155.667969 393.113281 147.058594 394.386719 138.6875 397.054688 C 93.503906 411.1875 68.210938 459.832031 82.222656 505.445312 C 89.074219 527.644531 104.054688 545.78125 124.496094 556.519531 C 144.691406 567.132812 167.800781 569.195312 189.511719 562.402344 C 234.699219 548.269531 259.988281 499.625 245.917969 453.949219 C 239.0625 431.75 224.082031 413.613281 203.644531 402.878906 C 191.332031 396.386719 177.808594 393.113281 164.222656 393.113281 Z M 164.222656 393.113281 " fill-opacity="1" fill-rule="nonzero"/><path fill="#5996d1" d="M 678.234375 87.222656 C 686.789062 114.941406 671.441406 144.300781 644.027344 152.914062 C 616.613281 161.527344 587.441406 146.058594 578.949219 118.402344 C 570.398438 90.679688 585.742188 61.261719 613.15625 52.710938 C 640.570312 44.15625 669.683594 59.5625 678.234375 87.222656 M 633.355469 691.660156 C 641.90625 719.378906 626.5625 748.738281 599.148438 757.351562 C 571.734375 765.964844 542.558594 750.496094 534.070312 722.835938 C 525.578125 695.179688 540.863281 665.761719 568.277344 657.148438 C 595.691406 648.535156 624.863281 663.941406 633.355469 691.660156 M 213.773438 464.140625 C 222.265625 491.859375 206.980469 521.21875 179.566406 529.828125 C 152.152344 538.441406 122.980469 522.976562 114.488281 495.316406 C 105.9375 467.597656 121.28125 438.179688 148.695312 429.625 C 176.109375 421.011719 205.222656 436.480469 213.773438 464.140625 " fill-opacity="1" fill-rule="nonzero"/><path fill="#808587" d="M 519.160156 525.164062 L 534.578125 520.414062 L 563.535156 614.4375 L 548.117188 619.1875 Z M 519.160156 525.164062 " fill-opacity="1" fill-rule="nonzero"/><path fill="#808587" d="M 537.941406 260.9375 L 570.78125 179.875 L 585.734375 185.933594 L 552.894531 266.996094 Z M 537.941406 260.9375 " fill-opacity="1" fill-rule="nonzero"/><path fill="#808587" d="M 255.804688 459.410156 L 251.558594 443.820312 L 355.574219 415.433594 L 359.820312 431.019531 Z M 255.804688 459.410156 " fill-opacity="1" fill-rule="nonzero"/><path fill="#808587" d="M 490.035156 535.957031 C 467.050781 535.957031 444.246094 530.375 423.320312 519.335938 C 388.871094 501.199219 363.582031 470.628906 352.054688 433.265625 C 328.402344 356.476562 371.101562 274.527344 447.21875 250.691406 C 483.910156 239.167969 522.96875 242.683594 557.054688 260.640625 C 591.503906 278.773438 616.796875 309.34375 628.320312 346.769531 C 651.972656 423.621094 609.277344 505.507812 533.097656 529.40625 C 518.96875 533.710938 504.472656 535.957031 490.035156 535.957031 Z M 490.402344 260.152344 C 477.601562 260.152344 464.683594 262.09375 452.128906 266.039062 C 384.445312 287.265625 346.476562 360.113281 367.523438 428.472656 C 377.773438 461.714844 400.273438 488.949219 430.84375 505.023438 C 461.105469 520.914062 495.738281 524.066406 528.308594 513.878906 C 595.992188 492.648438 633.960938 419.800781 612.914062 351.441406 C 602.664062 318.140625 580.164062 290.964844 549.535156 274.894531 C 530.976562 265.128906 510.78125 260.152344 490.402344 260.152344 Z M 490.402344 260.152344 " fill-opacity="1" fill-rule="nonzero"/><path fill="#5996d1" d="M 579.800781 361.875 C 595.144531 411.792969 567.546875 464.867188 518.058594 480.394531 C 468.566406 495.863281 415.980469 468.023438 400.636719 418.042969 C 385.234375 368.121094 412.890625 315.046875 462.378906 299.578125 C 511.871094 284.050781 564.394531 311.953125 579.800781 361.875 " fill-opacity="1" fill-rule="nonzero"/><g mask="url(#aa07f7776c)"><g transform="matrix(1, 0, 0, 1, 396, 314)"><g clip-path="url(#7792a20e82)"><g clip-path="url(#923c0729b2)"><path fill="#717677" d="M 154.019531 124.726562 C 104.53125 140.253906 47.09375 110.773438 31.75 60.855469 C 25.867188 41.6875 31.507812 18.820312 37.023438 1.046875 C 6.882812 24.519531 -7.308594 65.222656 4.636719 104.101562 C 20.042969 154.023438 72.566406 181.921875 122.058594 166.394531 C 152.566406 156.8125 174.703125 132.972656 183.679688 104.40625 C 175.066406 111.078125 164.9375 121.265625 154.019531 124.726562 " fill-opacity="1" fill-rule="nonzero"/></g></g></g></g><g mask="url(#6e4fd1d2ba)"><g transform="matrix(1, 0, 0, 1, 415, 314)"><g clip-path="url(#e84d7d91be)"><g clip-path="url(#bf3d60503a)"><path fill="#ffffff" d="M 48.957031 30.648438 C 91.230469 17.363281 145.269531 58.730469 154.003906 97.914062 C 157.460938 84.449219 159.28125 76.929688 153.945312 59.640625 C 140.417969 15.726562 95.171875 -9.144531 52.839844 4.140625 C 18.328125 15 0.496094 37.441406 0.980469 73.046875 C 8.746094 48.601562 23.300781 38.714844 48.957031 30.648438 " fill-opacity="1" fill-rule="nonzero"/></g></g></g></g></svg>