<svg version="1.1" id="Capa_1" xmlns="http://www.w3.org/2000/svg" xmlns:xlink="http://www.w3.org/1999/xlink" x="0" y="0" viewBox="0 0 4867 1335.4" xml:space="preserve"><style>.st0{fill:#808587}.st1{fill:#5996d1}.st8{fill:#5b97d2}</style><path class="st0" d="M859.7 1335.4c-26.7 0-53.2-6.5-77.5-19.3-40-21-69.4-56.5-82.7-99.9-27.5-89.2 22.1-184.3 110.5-212 42.7-13.3 88-9.3 127.6 11.6 40 21 69.4 56.5 82.7 100 27.4 89.2-22.1 184.3-110.5 212-16.5 5.1-33.4 7.6-50.1 7.6zm.3-312.3c-14.1 0-28.2 2.1-42.1 6.5-74.5 23.3-116.2 103.5-93 178.8 11.3 36.6 36 66.5 69.7 84.2 33.3 17.5 71.3 21 107.2 9.7 74.5-23.3 116.2-103.5 93-178.8-11.3-36.6-36-66.5-69.7-84.2-20.4-10.7-42.7-16.2-65.1-16.2zM933.6 339c-26.7 0-53.2-6.5-77.5-19.3-40-21-69.4-56.5-82.7-99.9-27.5-89.2 22.1-184.3 110.5-212 42.7-13.4 88-9.3 127.6 11.6 40 21 69.4 56.5 82.7 99.9 27.5 89.2-22.1 184.3-110.5 212-16.5 5.1-33.3 7.7-50.1 7.7zm.3-312.3c-14.1 0-28.2 2.1-42.1 6.5-74.5 23.4-116.2 103.6-93 178.8 11.3 36.6 36 66.5 69.7 84.2 33.3 17.5 71.4 21 107.2 9.7 74.5-23.4 116.2-103.6 93-178.8-11.3-36.6-36-66.5-69.7-84.2-20.4-10.8-42.7-16.2-65.1-16.2zM167.8 960.4c-26.7 0-53.2-6.5-77.5-19.3-40-21-69.4-56.5-82.7-99.9-27.5-89.2 22.1-184.3 110.5-212 42.7-13.3 88-9.3 127.6 11.6 40 21 69.4 56.5 82.7 99.9 27.5 89.2-22.1 184.3-110.5 212-16.5 5.1-33.3 7.7-50.1 7.7zm.4-312.3c-14.1 0-28.3 2.1-42.1 6.5C51.6 677.9 9.9 758.1 33 833.3c11.3 36.6 36 66.5 69.7 84.2 33.3 17.5 71.4 20.9 107.2 9.7 74.5-23.3 116.2-103.5 93-178.8-11.3-36.6-36-66.5-69.7-84.2-20.3-10.7-42.6-16.1-65-16.1z"/><path class="st1" d="M1015.7 143.8c14.1 45.7-11.2 94.1-56.4 108.3S866 240.8 852 195.2c-14.1-45.7 11.2-94.2 56.4-108.3s93.2 11.3 107.3 56.9M941.7 1140.3c14.1 45.7-11.2 94.1-56.4 108.3-45.2 14.2-93.3-11.3-107.3-56.9-14-45.6 11.2-94.1 56.4-108.3 45.2-14.2 93.3 11.2 107.3 56.9M249.9 765.2c14 45.7-11.2 94.1-56.4 108.3-45.2 14.2-93.3-11.3-107.3-56.9-14.1-45.7 11.2-94.2 56.4-108.3 45.2-14.2 93.2 11.3 107.3 56.9"/><path transform="rotate(-17.118 789.993 939.402)" class="st0" d="M776.7 858.3h26.6v162.2h-26.6z"/><path transform="rotate(-67.945 823.84 368.345)" class="st0" d="M751.7 355h144.2v26.6H751.7z"/><path class="st0" d="M319.2 757.4l-7-25.7 171.5-46.8 7 25.7z"/><path class="st0" d="M705.4 883.6c-37.9 0-75.5-9.2-110-27.4-56.8-29.9-98.5-80.3-117.5-141.9-39-126.6 31.4-261.7 156.9-301 60.5-19 124.9-13.2 181.1 16.4 56.8 29.9 98.5 80.3 117.5 142 39 126.7-31.4 261.7-157 301.1-23.3 7.1-47.2 10.8-71 10.8zm.6-454.7c-21.1 0-42.4 3.2-63.1 9.7-111.6 35-174.2 155.1-139.5 267.8 16.9 54.8 54 99.7 104.4 126.2 49.9 26.2 107 31.4 160.7 14.6 111.6-35 174.2-155.1 139.5-267.8-16.9-54.9-54-99.7-104.5-126.2-30.6-16.1-63.9-24.3-97.5-24.3z"/><path class="st1" d="M853.4 596.6c25.3 82.3-20.2 169.8-101.8 195.4C670 817.5 583.3 771.6 558 689.2c-25.4-82.3 20.2-169.8 101.8-195.3 81.6-25.6 168.2 20.4 193.6 102.7"/><g opacity=".32"><defs><path id="SVGID_1_" d="M551 519.4h302.2v279.7H551z"/></defs><clipPath id="SVGID_2_"><use xlink:href="#SVGID_1_" overflow="visible"/></clipPath><g clip-path="url(#SVGID_2_)"><defs><path id="SVGID_3_" d="M551 519.4h302.2V799H551z"/></defs><clipPath id="SVGID_4_"><use xlink:href="#SVGID_3_" overflow="visible"/></clipPath><path d="M804.3 723.3c-81.6 25.6-176.3-23-201.6-105.3-9.7-31.6-.4-69.3 8.7-98.6-49.7 38.7-73.1 105.8-53.4 169.9 25.4 82.3 112 128.3 193.6 102.7 50.3-15.8 86.8-55.1 101.6-102.2-14.2 11-30.9 27.8-48.9 33.5" clip-path="url(#SVGID_4_)" fill="#717677"/></g></g><g opacity=".91"><defs><path id="SVGID_5_" d="M583.4 518.7h257.7v160.5H583.4z"/></defs><clipPath id="SVGID_6_"><use xlink:href="#SVGID_5_" overflow="visible"/></clipPath><g clip-path="url(#SVGID_6_)"><defs><path id="SVGID_7_" d="M583.4 518.7h257.7v160.4H583.4z"/></defs><clipPath id="SVGID_8_"><use xlink:href="#SVGID_7_" overflow="visible"/></clipPath><path d="M662.4 568.2c69.7-21.9 158.8 46.3 173.2 110.9 5.7-22.2 8.7-34.6-.1-63.1-22.3-72.4-96.9-113.4-166.7-91.5-56.9 17.9-86.3 54.9-85.5 113.6 12.8-40.3 36.8-56.6 79.1-69.9" clip-path="url(#SVGID_8_)" fill="#fff"/></g></g><path class="st0" d="M1374.3 1056.8h-155.6V284.5c6.1-.8 12.5-1.6 19.3-2.3 6.1-.8 11.9-1.5 17.6-2.3 5.7-.8 11.2-1.1 16.5-1.1 10.6 0 21.8 1.1 33.5 3.5 11.7 2.3 22.7 6.6 33 12.7 10.2 6.2 18.7 15.2 25.6 27.1 6.8 11.9 10.2 27.5 10.2 46.8v687.9zM2074.5 1008.3c-4.6 4.6-12.2 10.4-22.8 17.3-10.7 7-24.6 13.9-41.8 20.8-17.1 6.9-38.2 12.9-62.9 17.9-24.8 5-53.2 7.5-85.2 7.5-61.8 0-115.2-10-160.1-30-45-20-82.2-47.9-111.5-83.7-29.4-35.7-50.9-78-64.6-127-13.7-48.9-20.6-102.5-20.6-161s7.4-112.5 22.3-162.2c14.9-49.6 37.2-92.6 66.9-128.7 29.8-36.2 66.9-64.5 111.5-84.8 44.6-20.4 97.1-30.6 157.3-30.6 29.7 0 56.6 2.7 80.6 8.1 24 5.4 45 11.7 62.9 19 17.9 7.3 32.8 15 44.6 23.1 11.9 8.1 20.8 14.8 26.9 20.2 6.9 6.2 12.8 13.4 17.7 22 4.9 8.5 7.4 17.7 7.4 27.7 0 15.4-5.7 30.8-17.1 46.2-11.5 15.4-24 29.6-37.8 42.7-9.1-9.2-19.5-18.6-30.9-28.3-11.4-9.6-24.2-18.1-38.3-25.4-14.1-7.3-30.2-13.4-48.1-18.5-17.9-5-38-7.5-60.1-7.5-38.9 0-71.5 7.9-97.8 23.7-26.3 15.8-47.5 36.3-63.5 61.8-16 25.4-27.5 54.4-34.3 87.1-6.9 32.7-10.3 66-10.3 99.9 0 36.2 3.4 70.8 10.3 103.9 6.9 33.1 18.7 62.3 35.5 87.7 16.7 25.4 38.7 45.8 65.8 61.2 27.1 15.4 60.8 23.1 101.2 23.1 21.4 0 41-2.7 58.9-8.1 17.9-5.3 33.8-11.9 47.5-19.6 13.7-7.7 25.7-15.8 36-24.3 10.3-8.4 18.9-15.7 25.8-21.9 4.6 5.4 9.9 12 16 19.6 6.1 7.7 11.8 15.8 17.2 24.3 5.3 8.5 9.9 17 13.7 25.4 3.8 8.5 5.8 16.2 5.8 23.1 0 10-1.9 18.4-5.8 25.4-3.9 6.7-10 14.4-18.3 22.9M2624.7 932.1c18.3 0 33.6 2.3 45.8 6.9 12.2 4.6 21.9 10.8 29.2 18.5 7.2 7.7 12.4 16.5 15.4 26.6 3 10 4.6 20 4.6 30 0 8.5-.2 15.6-.6 21.3-.4 5.8-1 12.2-1.7 19.1H2222V281h477.1c1.5 8.5 2.5 15.6 2.8 21.4.4 5.8.6 12.9.6 21.4 0 26.9-6.9 47.1-20.6 60.6-13.8 13.5-39.3 20.2-76.7 20.2h-225.3V595h242.5v123.5h-242.5V932h244.8zM2820.4 874.4c10.6 8.5 22.5 17.1 35.5 26 13 8.9 27.3 17 42.9 24.3 15.6 7.3 32.6 13.3 50.9 17.9 18.3 4.6 38.1 6.9 59.5 6.9 16 0 31.6-1.9 46.9-5.8 15.2-3.9 28.8-9.8 40.6-17.9 11.8-8.1 21.5-18.6 29.2-31.7 7.6-13.1 11.4-29.3 11.4-48.5 0-20-4.2-36.9-12.6-50.8-8.4-13.9-19.5-25.6-33.2-35.2-13.7-9.6-29.6-17.9-47.5-24.9-17.9-6.9-36.8-13.8-56.6-20.7-24.4-8.4-49-17.7-73.8-27.7-24.8-10-47.1-23.1-66.9-39.3-19.8-16.2-36-36.8-48.6-61.8-12.6-25-18.9-56.7-18.9-95.2 0-37 7.2-69.7 21.7-98.2 14.5-28.4 34.3-52.1 59.5-71 25.2-18.9 54.1-33.1 86.9-42.7 32.8-9.6 67.5-14.5 104.1-14.5 25.2 0 48.6 2 70.4 5.8 21.7 3.9 41.2 8.5 58.3 13.9 17.2 5.4 31.7 10.9 43.5 16.7 11.8 5.8 20.8 10.9 26.9 15.6 21.3 13.1 32 30.4 32 52 0 9.2-4 21.8-12 37.5-8 15.8-19.3 31.4-33.8 46.7-19.1-15.3-43.9-30-74.4-43.8-30.5-13.9-62.6-20.8-96.1-20.8-13.7 0-27.8 1.4-42.3 4-14.5 2.7-27.7 7.3-39.5 13.8-11.8 6.5-21.5 15.4-29.1 26.5-7.6 11.2-11.5 25.6-11.5 43.3 0 16.2 3.8 30.2 11.5 42.1 7.6 11.9 17.9 22.3 30.9 31.2 13 8.9 28 16.8 45.2 23.7 17.1 6.9 34.9 13.8 53.2 20.8 24.4 9.2 49.2 19 74.3 29.4 25.2 10.4 48.1 24.1 68.6 41 20.6 17 37.4 37.9 50.4 62.9 12.9 25 19.4 56.4 19.4 94.1 0 40.8-7.1 76.8-21.2 108-14.1 31.2-33.8 57.5-58.9 79-25.2 21.6-55.5 37.8-91 48.5-35.5 10.8-74.1 16.2-116.1 16.2-54.2 0-98.4-5.6-132.7-16.7-34.3-11.1-59.1-21.4-74.3-30.6-9.2-6.1-16.8-13.5-22.9-22-6.1-8.4-9.1-18.1-9.1-28.8 0-13.1 5.2-28.9 15.5-47.4 10.3-18.3 21.5-35.6 33.8-51.8"/><g><path class="st8" d="M3474.1 625.8v-228h125.1v1c0 .4 0 .8.1 1 .1.2.2.6.2 1 0 4.4-1.2 7.9-3.7 10.4s-6.4 3.8-11.8 3.8h-90v82.4h79.6v17.3H3494v93.6h94.4c5.4 0 9.5 1.3 12.3 3.8 2.8 2.5 4.2 6 4.2 10.4 0 .5-.1.8-.2 1-.1.3-.2.6-.2 1.1v1h-130.4zM3737.8 625.8v-15.3c-1.3 1.8-3.3 3.9-5.9 6.3-2.6 2.4-5.8 4.6-9.6 6.6s-8.3 3.8-13.3 5.2c-5.1 1.5-11 2.2-17.7 2.2-9.2 0-17.9-1.5-26-4.4-8.1-2.9-15.3-7.7-21.6-14.3-6.3-6.6-11.3-15.1-14.8-25.4-3.6-10.3-5.4-23-5.4-37.9 0-16.3 2.2-29.9 6.6-40.7 4.4-10.8 10.1-19.4 17-26 7-6.6 14.5-11.2 22.8-13.9 8.2-2.7 16.2-4.1 24.1-4.1 7 0 13 .8 18.2 2.4 5.1 1.6 9.5 3.5 13.1 5.6 3.6 2.1 6.4 4.2 8.4 6.3 2 2.1 3.4 3.4 4 4.1v-98h1c.4 0 .8-.1 1.2-.2.3-.1.7-.2 1.2-.2 1.3 0 2.9.2 4.7.5 1.8.4 3.5 1.1 5.2 2.4 1.7 1.2 3.1 3 4.2 5.3s1.7 5.2 1.7 8.9v224.6h-19.1zm-93.7-80.5c0 10 .9 19.2 2.7 27.6 1.8 8.4 4.7 15.7 8.8 21.8 4 6.2 9.3 11 15.9 14.5 6.5 3.5 14.4 5.3 23.7 5.3 6.1 0 11.7-.8 16.8-2.5 5.1-1.7 9.5-3.8 13.2-6.3 3.7-2.5 6.7-5.2 9-8.2 2.3-3 3.5-5.8 3.7-8.5v-88.7c-1.4-1.6-3.2-3.5-5.6-5.8-2.4-2.3-5.3-4.5-8.6-6.5-3.4-2.1-7.3-3.8-11.9-5.3-4.5-1.5-9.6-2.2-15.2-2.2-16.9 0-29.9 5.4-38.9 16.4-9.1 10.9-13.6 27-13.6 48.4M3940.2 625.8h-19.6v-18.4c-5.2 5.4-12.5 10.4-22.1 14.8-9.6 4.5-21.1 6.6-34.6 6.6-8.1 0-15.1-.9-20.9-2.9-5.9-1.9-10.8-4.5-14.8-7.8-4.1-3.3-7.3-7-9.6-11.1-2.4-4.1-4-8.4-4.9-12.9-1.1-4.7-1.9-9.7-2.2-14.8-.3-5.1-.5-10.3-.5-15.5v-97h1.3c4.7 0 8.9 1.2 12.5 3.7 3.6 2.5 5.4 7.4 5.4 14.7V564c0 4.6.3 9.1.9 13.6.5 4.6 1.4 8.5 2.5 12 4.3 14.5 17 21.8 38.1 21.8 5.6 0 11.4-.8 17.2-2.4 5.8-1.6 11.1-3.6 15.9-6 4.7-2.4 8.6-5.1 11.6-8 3-3 4.6-5.8 4.6-8.5V466.9h1.4c4.7 0 8.9 1.2 12.5 3.7 3.6 2.5 5.4 7.5 5.4 15v140.2zM4102.4 594.8c1.3 1.1 3 2.8 4.9 4.9 1.9 2.2 2.8 4.2 2.8 6.3 0 2.5-2 5.6-6.1 9.2-3.8 3.4-9.6 6.9-17.3 10.4-7.8 3.5-17.3 5.2-28.5 5.2-6.7 0-14.3-.9-22.6-2.9-8.3-1.9-16.2-5.9-23.6-11.9-7.4-6-13.7-14.5-18.7-25.3-5.1-10.9-7.6-25.4-7.6-43.6 0-11.3 1.2-21.3 3.7-29.8s5.7-15.9 9.8-22.1c4-6.3 8.7-11.3 14-15.3 5.3-4 10.6-7.1 16-9.5 5.4-2.4 10.7-4 15.8-4.9 5.2-.9 9.8-1.4 13.8-1.4 11.5 0 20.9 1.6 28.3 4.7 7.4 3.1 13.2 6.3 17.2 9.6 2.5 2 4.1 3.8 4.9 5.4.8 1.6 1.2 3.2 1.2 4.8 0 1.8-.6 3.8-1.7 5.9-1.1 2.2-2.3 4.4-3.7 6.6h-3c-4.5-6.3-10.2-11.4-17.1-15.1-6.8-3.7-15.3-5.6-25.4-5.6-9.4 0-17.5 1.8-24.3 5.3-6.7 3.5-12.3 8.3-16.5 14.2-4.3 5.9-7.4 13-9.4 21.1-2 8.2-3 16.9-3 26 0 9.3 1 18.1 3 26.3 2.1 8.2 5.2 15.3 9.6 21.5 4.4 6.1 10 11 16.7 14.5 6.7 3.5 14.9 5.3 24.6 5.3 7.2 0 13.4-1 18.5-3 5.2-2.1 9.6-4.3 13.2-6.8 4.1-2.9 7.6-6.1 10.5-10M4276.1 625.8c-4 1.1-8.1 1.7-12.1 1.7-6.7 0-12.6-1.6-17.5-4.9-5-3.3-7.7-8.8-8.1-16.5-6.5 6.6-14.2 12-23.1 16.3-8.9 4.3-19.4 6.5-31.5 6.5-5 0-10.4-.6-16.2-1.9-5.9-1.3-11.3-3.6-16.2-7-4.9-3.4-9-8.1-12.3-14.1-3.2-6-4.9-13.8-4.9-23.3 0-11.6 3.1-21.1 9.1-28.4 6.1-7.4 13.6-13.1 22.6-17.2 9-4.1 18.6-6.9 29-8.4 10.3-1.5 19.6-2.2 28-2.2 2.7 0 5.3.1 7.7.2 2.5.1 4.9.3 7.4.5v-8.3c0-5.5-.6-10.5-1.7-15.2-1.1-4.7-3.1-8.7-5.9-12.2-2.8-3.4-6.7-6.1-11.7-8-5.1-1.9-11.6-2.9-19.7-2.9-10.8 0-20 1.5-27.9 4.4-7.8 2.9-14 6.2-18.5 9.8h-3c-3.1-4.5-4.7-8.3-4.7-11.2 0-1.8.8-3.5 2.5-4.9 1.7-1.4 3.8-2.8 6.3-4.2 5.8-3.1 13.1-5.6 21.8-7.5 8.7-1.9 17.1-2.8 25.2-2.8 11 0 20.1 1.3 27.4 3.8 7.3 2.5 13.1 6.2 17.5 11 4.4 4.9 7.4 10.9 9.2 18.1 1.8 7.1 2.7 15.5 2.7 25v68.1c0 6.3.4 11.3 1.3 15 .9 3.6 2.2 6.4 3.7 8.4 1.6 1.9 3.5 3.2 5.7 3.7 2.2.6 4.8 1 7.7 1.2v7.4zm-37.8-84.8c-1.4-.2-2.8-.3-4.2-.3h-4.5c-8.8 0-17.5.5-26.4 1.5-8.9 1-16.9 3.1-24.2 6.1-7.3 3.1-13.2 7.2-17.6 12.5-4.5 5.3-6.7 12.3-6.7 20.8 0 3.9.5 7.6 1.5 11.3 1 3.8 2.7 7 5.2 9.8 2.4 2.8 5.8 5.2 9.9 7 4.1 1.8 9.5 2.7 16 2.7 7 0 13.5-1 19.6-3 6.1-2 11.6-4.5 16.3-7.4 4.7-2.9 8.4-5.9 11.1-9 2.7-3 4-5.6 4-7.6V541zM4419.7 594.8c1.3 1.1 3 2.8 4.9 4.9 1.9 2.2 2.9 4.2 2.9 6.3 0 2.5-2 5.6-6.1 9.2-3.8 3.4-9.6 6.9-17.4 10.4-7.8 3.5-17.3 5.2-28.5 5.2-6.7 0-14.3-.9-22.6-2.9-8.3-1.9-16.2-5.9-23.6-11.9-7.5-6-13.7-14.5-18.7-25.3-5.1-10.9-7.6-25.4-7.6-43.6 0-11.3 1.3-21.3 3.7-29.8 2.5-8.5 5.7-15.9 9.8-22.1 4-6.3 8.7-11.3 14-15.3 5.3-4 10.6-7.1 16-9.5 5.4-2.4 10.7-4 15.8-4.9 5.2-.9 9.8-1.4 13.8-1.4 11.5 0 20.9 1.6 28.3 4.7 7.4 3.1 13.2 6.3 17.2 9.6 2.5 2 4.1 3.8 4.9 5.4.8 1.6 1.2 3.2 1.2 4.8 0 1.8-.6 3.8-1.7 5.9-1.1 2.2-2.3 4.4-3.7 6.6h-3c-4.5-6.3-10.2-11.4-17-15.1-6.8-3.7-15.3-5.6-25.5-5.6-9.4 0-17.5 1.8-24.3 5.3-6.7 3.5-12.3 8.3-16.5 14.2-4.3 5.9-7.4 13-9.4 21.1-2 8.2-3 16.9-3 26 0 9.3 1 18.1 3 26.3s5.2 15.3 9.6 21.5c4.4 6.1 10 11 16.7 14.5 6.7 3.5 15 5.3 24.6 5.3 7.2 0 13.4-1 18.6-3 5.2-2.1 9.5-4.3 13.2-6.8 4-2.9 7.5-6.1 10.4-10M4488.5 425c0 4.3-1.4 8-4.2 11.1-2.8 3-6.2 4.6-10.3 4.6-4 0-7.5-1.6-10.3-4.6-2.8-3-4.2-6.7-4.2-11.1 0-4.3 1.4-8 4.2-11 2.8-3.1 6.3-4.6 10.3-4.6 4.1 0 7.5 1.5 10.3 4.6 2.8 3 4.2 6.7 4.2 11m-.6 202.5c-5.4 0-9.6-1-12.7-3-3-2.1-5.3-4.6-6.7-7.8-1.5-3.2-2.4-6.9-2.7-11-.3-4.2-.5-8.5-.5-13.1V466.8h1c4.5 0 8.7 1.2 12.5 3.6 3.8 2.4 5.7 7.1 5.7 14.1v108.9c0 5 .3 9.1 1 12.2.7 3.2 1.7 5.7 3 7.5 1.4 1.8 3.1 3.2 5.2 4 2.1.8 4.8 1.3 7.9 1.5v7.2c-2.5.7-4.8 1.1-7.1 1.4-2.1.2-4.4.3-6.6.3M4675.4 547.2c0 10.9-1.3 21.4-3.9 31.5-2.6 10.1-6.8 19-12.5 26.7-5.7 7.7-13.1 13.9-22.2 18.5s-20.2 7-33.2 7c-12.8 0-23.8-2.3-32.9-6.8-9.1-4.5-16.5-10.6-22.3-18.2-5.7-7.6-9.9-16.4-12.5-26.4-2.6-10-3.9-20.4-3.9-31.3 0-11.1 1.5-21.8 4.5-32 3.1-10.2 7.6-19.2 13.7-26.9 6.1-7.7 13.7-13.8 22.8-18.4 9.1-4.6 19.7-6.8 31.9-6.8 12.8 0 23.7 2.3 32.7 6.8 9 4.5 16.3 10.7 21.8 18.4 5.5 7.7 9.6 16.6 12.2 26.6 2.5 10 3.8 20.3 3.8 31.3m-20.6-.2c0-7.7-.7-15.6-2-23.5-1.4-7.9-3.9-15.1-7.6-21.5-3.7-6.4-8.9-11.5-15.5-15.5s-15.1-6-25.5-6c-9.9 0-18.2 2-24.8 6-6.6 4-11.9 9.2-15.8 15.5-3.9 6.4-6.7 13.5-8.5 21.5-1.7 8-2.5 15.8-2.5 23.5 0 8 .7 15.9 2.2 23.9 1.5 8 4.1 15.2 7.9 21.6 3.8 6.5 9.1 11.8 15.7 15.9s15 6.1 25.1 6.1c10.6 0 19.2-2 25.8-6.1 6.6-4.1 11.8-9.4 15.7-15.9 3.8-6.5 6.4-13.7 7.7-21.6 1.4-8 2.1-16 2.1-23.9M4613 443.7c-3.2 3.4-6.9 5.1-11.1 5.1-1.8 0-3.8-.4-5.9-1-2.2-.7-3.7-1.4-4.6-2.1l28.7-37.4c2.2-3.2 4.5-5.7 6.6-7.7 2.1-1.9 4.9-2.9 8.3-2.9 2.9 0 5.7.6 8.4 1.7s4.9 2.4 6.7 3.8l-37.1 40.5zM4739.8 485.6c5.2-5.4 12.6-10.4 22.3-14.8 9.7-4.4 21.3-6.6 34.9-6.6 8.1 0 15.1 1 21 2.9s10.8 4.5 14.9 7.8 7.3 7.1 9.6 11.2c2.4 4.2 4 8.5 4.9 12.8 1.1 4.8 1.9 9.7 2.2 14.8.3 5.1.5 10.3.5 15.5v96.7h-19.2V529c0-4.5-.2-9.1-.7-13.6-.4-4.6-1.2-8.5-2.4-12-4.3-14.5-17.1-21.8-38.4-21.8-4.8 0-9.5.5-14.1 1.6-4.6 1-9 2.4-13.1 4.1-4.1 1.7-7.8 3.7-11.2 6-3.4 2.3-6.1 4.6-8.2 6.8-1.8 2-2.7 4.9-2.7 8.5V626h-19.2V466.8h1.4c4.6 0 8.7 1.3 12.2 3.8s5.3 7.5 5.3 15"/></g><g><path class="st8" d="M3593.6 787.9c5.5 3 9.1 5.8 11 8.4 1.9 2.6 2.9 5.2 2.9 7.6 0 3-.7 6.5-2.2 10.5-1.5 4-3.3 7.9-5.5 11.8l-5.7.4c-4.7-5.8-11.4-10.8-20.2-15.1-8.9-4.3-18.3-6.4-28.4-6.4-3.5 0-7.4.3-11.7 1-4.2.7-8.2 2-11.9 3.7-3.7 1.8-6.7 4.3-9.2 7.6-2.5 3.3-3.7 7.4-3.7 12.4 0 8.8 3.9 15.2 11.6 19 7.8 3.9 17.4 7.2 28.9 9.9 8.2 1.9 16.1 4.3 23.7 7.2 7.6 2.9 14.4 6.6 20.2 11.1 5.9 4.5 10.5 10.3 13.9 17.1 3.4 6.9 5.1 15.4 5.1 25.6 0 10.2-2.1 19.1-6.2 26.6-4.1 7.6-9.5 13.9-16.4 19-6.8 5.1-14.8 9-23.9 11.6-9.2 2.6-18.6 3.9-28.4 3.9-9.6 0-18.2-.8-25.8-2.3-7.7-1.5-14.1-3.4-19.2-5.5-6.9-2.8-11.6-5.6-14.3-8.5-2.8-2.9-4.1-5.8-4.1-8.9 0-3.6 1-7.3 2.9-11.2 1.9-3.9 4.4-8.2 7.3-13.2 1.9 1.6 4.6 3.7 7.9 6.2 3.4 2.5 7.5 4.8 12.2 7 4.7 2.2 10 4.1 15.7 5.6 5.7 1.5 11.8 2.3 18.3 2.3 4.9 0 9.7-.5 14.3-1.4 4.6-1 8.7-2.5 12.4-4.7 3.7-2.2 6.6-5.2 9-9.1 2.3-3.9 3.5-8.7 3.5-14.5 0-5.8-1.2-10.5-3.6-14.2-2.5-3.7-5.7-6.8-9.8-9.3-4.1-2.5-8.6-4.5-13.6-6s-10.1-2.8-15.3-3.9c-7.9-1.7-15.4-3.8-22.6-6.4-7.2-2.6-13.6-6.2-19.1-10.6-5.6-4.4-10.1-9.9-13.4-16.5-3.4-6.6-5.1-14.6-5.1-23.9 0-9.1 1.9-17.1 5.7-24.1 3.8-7 9-12.8 15.5-17.3s14-8 22.3-10.3c8.3-2.3 17-3.5 26-3.5 10.4 0 19.8 1.1 28.4 3.3 8.5 2.3 15.4 4.9 20.6 8M3730.6 951.3c7.4 0 14.1-1 20.2-3.1s11.4-4.6 15.8-7.7c4.3-3 7.7-6.3 10.2-9.7 2.4-3.5 3.7-6.6 3.7-9.3V779.2h2.4c.5 0 1.3-.1 2.2-.2.9-.2 1.9-.2 2.7-.2 7.6 0 14.1 2 19.4 6 5.3 4 8 11.2 8 21.7v168.8h-34.8v-17.8c-5.5 6.3-13.1 11.8-22.9 16.7-9.8 4.9-22.5 7.3-38 7.3-15.8 0-28.1-2.5-36.8-7.4-8.7-5-15.2-11.3-19.4-19-4.2-7.7-6.7-16.2-7.6-25.4-.8-9.2-1.2-18.1-1.2-26.6V779.2h2.4c.5 0 1.3-.1 2.3-.2.9-.2 1.8-.2 2.7-.2 7.6 0 14.1 1.9 19.4 5.8 5.3 3.9 8 11 8 21.5v97.3c0 10.8.8 19.3 2.3 25.6 1.5 6.4 4.6 11.2 9.2 14.5 4.1 3.1 8.5 5.1 13.3 6.2 4.7 1.1 10.2 1.6 16.5 1.6M3883.6 780.3c6.6 0 12.2 1.5 17 4.5 4.8 3 8 8.1 9.6 15.3 5.2-6.4 12.4-11.9 21.7-16.5 9.3-4.6 20.8-6.9 34.8-6.9 10.6 0 20.7 1.8 30.1 5.4 9.4 3.6 17.7 9.3 24.9 17.1 7.2 7.8 13 18 17.2 30.6 4.2 12.5 6.4 27.9 6.4 46 0 20.7-2.5 37.8-7.6 51.4-5.1 13.6-11.6 24.4-19.6 32.4-8.1 8-17 13.6-26.8 16.9-9.8 3.3-19.4 4.9-28.6 4.9-14.7 0-26.3-2.6-34.8-7.6-8.4-5.1-14.2-9.7-17.2-13.8v104.5H3876V780.8h2.4c.8 0 1.6-.1 2.4-.2.8-.2 1.7-.3 2.8-.3m124.3 97.8c0-9.9-.9-19.2-2.6-28-1.8-8.8-4.7-16.3-8.6-22.6-4-6.3-9.3-11.3-16-15-6.7-3.7-14.9-5.5-24.7-5.5-13.1 0-23.9 2.7-32.5 8.2-8.6 5.5-12.9 12.1-12.9 19.8v93.8c1.7 2.2 3.8 4.6 6.5 7.2 2.7 2.6 6.1 5 10 7.2 4 2.2 8.5 4.1 13.5 5.8 5 1.7 10.4 2.5 16.2 2.5 16.9 0 29.6-6.3 38.2-18.9 8.6-12.8 12.9-30.9 12.9-54.5M4182.6 951.4c7.9 0 14.8-.8 20.7-2.5 5.8-1.6 10.9-3.7 15.1-6.2 4.2-2.5 7.8-5 10.8-7.6 3-2.6 5.5-5 7.4-7.2 3 3.8 5.7 8 8 12.4s3.5 7.8 3.5 10.3c0 2.2-.7 4.5-2.1 6.9-1.4 2.4-3.7 4.8-7 7.3-6.3 4.7-14.3 8.7-24.1 11.9-9.8 3.2-21.7 4.8-35.6 4.8-12.8 0-24.9-1.8-36.2-5.6-11.3-3.7-21.2-9.7-29.8-18-8.5-8.3-15.3-19-20.3-32.4-5-13.3-7.4-29.6-7.4-48.9 0-17.3 2.5-32.3 7.6-45 5-12.7 11.7-23 19.8-31.2 8.2-8.1 17.5-14.1 28-17.9 10.5-3.9 21.3-5.8 32.5-5.8 13.9 0 25.9 2.3 35.8 7 10 4.7 18.1 10.9 24.4 18.8 6.3 7.8 10.9 17 13.9 27.2 3 10.3 4.5 21 4.5 32 0 3.9-.1 7.8-.2 11.7-.2 4-.5 7.8-1 11.4h-128.8c.8 20 6 36 15.7 48.2 9.7 12.2 24.6 18.4 44.8 18.4m34.8-92.9c0-7.5-.7-14.3-2.3-20.7-1.5-6.3-4-11.9-7.5-16.7-3.5-4.8-8.2-8.6-14.1-11.3-5.8-2.8-12.9-4.1-21.4-4.1-14.1 0-25.7 4.7-34.8 14-9.1 9.4-14.2 22.3-15.3 38.8h95.4zM4307.4 780c6.3 0 11.9 1.6 17 4.7 5.1 3.2 8.1 8.5 9.2 15.9 3.8-5.8 9.6-11.2 17.2-16.3 7.6-5.1 16.5-7.6 26.6-7.6 3 0 6.2.3 9.6.8 3.4.6 6.6 1.5 9.6 2.7 3 1.2 5.5 3 7.4 5.1 1.9 2.2 2.9 5.1 2.9 8.7 0 4.4-1.1 9.2-3.3 14.2-2.2 5.1-4.4 9.3-6.5 12.6-3.5-3.3-7.3-5.8-11.5-7.6-4.1-1.8-9.3-2.7-15.5-2.7-4.6 0-9.1.8-13.3 2.3-4.2 1.5-8 3.6-11.2 6.2-3.3 2.6-5.9 5.6-7.8 8.9-1.9 3.3-2.8 6.7-2.8 10.3v137h-35V780.4h2.9c.8 0 1.6-.1 2.4-.2.9-.1 1.5-.2 2.1-.2M4480 717.7c0 6.4-2.1 11.6-6.4 15.9-4.2 4.3-9.5 6.4-15.7 6.4-6.3 0-11.5-2.1-15.8-6.4-4.2-4.3-6.4-9.6-6.4-15.9 0-6.9 2.1-12.5 6.4-16.9 4.2-4.4 9.5-6.6 15.8-6.6 6.2 0 11.5 2.2 15.7 6.6 4.3 4.4 6.4 10 6.4 16.9m-38.1 61.5h2.5c.5 0 1.3-.1 2.2-.2.9-.1 1.9-.2 2.7-.2 7.6 0 14.1 2 19.4 6 5.3 4 8 11.2 8 21.7v131.7c0 8 1.2 13.6 3.5 16.9 2.3 3.3 7.7 4.9 16.2 4.9v14.9c-2.4.8-5.8 1.5-10 2.1-4.2.5-8.4.8-12.5.8-7.9 0-14-1.2-18.2-3.7-4.2-2.5-7.4-5.8-9.4-9.9-2-4.1-3.3-8.7-3.7-13.8-.4-5.1-.6-10.1-.6-15.1V779.2zM4710.3 877.4c0 13.5-1.6 26.5-4.9 39-3.3 12.5-8.5 23.6-15.8 33.3-7.2 9.6-16.6 17.3-28 23.1-11.5 5.8-25.3 8.7-41.7 8.7-16.4 0-30.2-2.7-41.5-8.2-11.3-5.5-20.5-13-27.6-22.3-7.1-9.4-12.3-20.3-15.6-32.8-3.3-12.5-4.9-25.7-4.9-39.4 0-13.8 1.9-26.8 5.7-39.2 3.8-12.4 9.6-23.2 17.2-32.4s17.1-16.6 28.4-22.1c11.3-5.5 24.6-8.3 39.9-8.3 16.1 0 29.7 2.8 40.9 8.3 11.2 5.5 20.3 12.9 27.4 22.1 7.1 9.2 12.2 19.9 15.5 32 3.4 12 5 24.8 5 38.2m-36.4 0c0-8.5-.8-17-2.3-25.4-1.5-8.4-4.1-16-8-22.7-3.8-6.7-9.2-12.2-16-16.3-6.9-4.1-15.8-6.2-26.7-6.2-10.4 0-19.1 2.1-26.1 6.2s-12.6 9.6-16.6 16.3c-4.1 6.7-7.1 14.3-8.9 22.7-1.8 8.4-2.7 16.9-2.7 25.4s.8 17.2 2.3 26c1.5 8.8 4.3 16.7 8.4 23.7 4.1 7 9.6 12.8 16.4 17.3 6.9 4.5 15.6 6.8 26.3 6.8 10.9 0 20-2.3 27.1-6.8 7.1-4.6 12.6-10.3 16.4-17.3 3.9-7 6.5-15 8-23.7 1.6-8.7 2.4-17.4 2.4-26M4767.6 780c6.3 0 11.9 1.6 17 4.7 5.1 3.2 8.1 8.5 9.2 15.9 3.8-5.8 9.5-11.2 17.2-16.3 7.7-5.1 16.5-7.6 26.6-7.6 3 0 6.2.3 9.6.8 3.4.6 6.6 1.5 9.6 2.7 3 1.2 5.5 3 7.4 5.1 1.9 2.2 2.9 5.1 2.9 8.7 0 4.4-1.1 9.2-3.3 14.2-2.2 5.1-4.4 9.3-6.5 12.6-3.6-3.3-7.3-5.8-11.5-7.6-4.1-1.8-9.3-2.7-15.5-2.7-4.6 0-9.1.8-13.3 2.3-4.2 1.5-8 3.6-11.3 6.2-3.3 2.6-5.9 5.6-7.8 8.9-1.9 3.3-2.8 6.7-2.8 10.3v137h-34.8V780.4h2.9c.8 0 1.6-.1 2.5-.2.6-.1 1.3-.2 1.9-.2"/></g></svg>